<?xml version="1.0" standalone="no"?>
<!DOCTYPE svg PUBLIC "-//W3C//DTD SVG 20010904//EN"
 "http://www.w3.org/TR/2001/REC-SVG-20010904/DTD/svg10.dtd">
<svg version="1.0" xmlns="http://www.w3.org/2000/svg"
 width="1000.000000pt" height="1000.000000pt" viewBox="0 0 1000.000000 1000.000000"
 preserveAspectRatio="xMidYMid meet">
<metadata>
Created by potrace 1.14, written by Peter Selinger 2001-2017
</metadata>
<g transform="translate(0.000000,1000.000000) scale(0.100000,-0.100000)"
fill="#000000" stroke="none">
<path d="M0 5000 l0 -5000 5000 0 5000 0 0 5000 0 5000 -5000 0 -5000 0 0
-5000z m5744 3195 c48 -8 315 -163 369 -214 21 -20 48 -54 60 -76 l22 -40 0
-2860 0 -2860 -22 -40 c-35 -65 -89 -107 -273 -211 l-175 -99 -80 0 -80 0
-455 179 c-250 98 -471 187 -491 197 -50 25 -98 75 -123 129 l-21 45 -5 1900
c-4 1466 -8 1906 -17 1927 -22 49 -92 116 -141 135 -66 25 -129 21 -279 -16
-208 -52 -281 -111 -302 -242 -5 -30 -9 -763 -9 -1629 l0 -1575 -22 -47 c-25
-54 -83 -110 -137 -134 -21 -9 -64 -17 -98 -17 -52 0 -89 12 -268 83 -114 45
-224 94 -245 109 -20 15 -50 52 -67 82 l-30 54 -5 1415 c-5 1335 -6 1417 -23
1455 -38 85 -143 155 -232 155 -19 0 -102 -16 -185 -36 -179 -43 -227 -69
-274 -154 l-31 -55 -5 -1140 c-4 -896 -8 -1146 -18 -1169 -41 -94 -141 -160
-241 -159 -75 1 -202 51 -254 101 -45 43 -63 74 -75 130 -15 64 13 2979 28
3022 16 45 52 93 94 125 31 23 3926 1516 4005 1534 20 5 43 7 51 6 8 -2 33 -6
54 -10z m1437 -831 c41 -21 95 -60 121 -85 85 -85 78 119 78 -2284 0 -2316 3
-2181 -54 -2264 -27 -38 -149 -118 -215 -140 -121 -40 -264 26 -320 148 -15
33 -16 228 -16 2251 0 1821 2 2222 13 2253 19 52 98 130 152 150 73 27 153 17
241 -29z m1154 -681 c68 -34 109 -76 136 -137 22 -50 22 -56 20 -511 -1 -253
-6 -935 -11 -1515 -11 -1177 -7 -1113 -82 -1190 -125 -130 -327 -104 -414 52
l-29 53 -3 1515 c-2 1073 0 1530 8 1566 14 65 59 127 117 161 84 49 170 51
258 6z"/>
</g>
</svg>
